# xmcd CD database file
# Copyright (C) 1993-1998 Ti Kan
#
# Track frame offsets:
#	150
#	15827
#	28472
#	44340
#	60562
#	73640
#	84985
#	107050
#	121690
#	136207
#	148332
#	171740
#	183977
#	200265
#
# Disc length: 2864 seconds
#
# Revision: 1
# Processed by: cddbd v1.4b41PL1 Copyright (c) Steve Scherf et al.
# Submitted via: CDValet v3.31 - Copyright (c) 1997 Greg Leichner
#
DISCID=c40b2e0e
DTITLE=Aretha Franklin - Aretha Sings The Blues
DYEAR=1900
DGENRE=
TTITLE0=Drinking Again
TTITLE1=Today I Sing The Blues
TTITLE2=What A Difference A Day Made
TTITLE3=Without The One You Love
TTITLE4=Trouble In Mind
TTITLE5=Muddy Water
TTITLE6=Only The Lonely
TTITLE7=I Wonder (Where Are You Tonight)
TTITLE8=Laughing On The Outside (Crying On The Inside)
TTITLE9=Take A Look
TTITLE10=Nobody Knows The Way I Feel This Morning
TTITLE11=Evil Gal Blues
TTITLE12=This Bitter Earth
TTITLE13=Maybe I'm A Fool
EXTD=
EXTT0=
EXTT1=
EXTT2=
EXTT3=
EXTT4=
EXTT5=
EXTT6=
EXTT7=
EXTT8=
EXTT9=
EXTT10=
EXTT11=
EXTT12=
EXTT13=
PLAYORDER=
